# xmcd CD database file
#
# Track frame offsets:
#	150
#	15551
#	36155
#	50677
#	70984
#	90491
#	112648
#	130701
#	161103
#	184142
#	201316
#	223415
#	245488
#	264698
#	290026
#	304107
#
# Disc length: 4311 seconds
#
# Revision: 0
# Processed by: cddbd v1.5.2PL0 Copyright (c) Steve Scherf et al.
# Submitted via: CDex 1.51
#
DISCID=f010d510
DTITLE=PE'Z - 起きて寝る -FUNNY DAY ＆ HARD NIGHT- 昼-DAY SIDE
DYEAR=2007
DGENRE=Jazz
TTITLE0=BLANK-DUNK
TTITLE1=ハナフブキ　～花魁道中罷り通る～
TTITLE2=RUN！RUN！RUN！
TTITLE3=新しい日々　～LUNA ROSSA～
TTITLE4=ハイピッチャーのテーマ
TTITLE5=オキザリス　～輝く心～
TTITLE6=BooBy StaR
TTITLE7=Live For The Groove [inst ver.]
TTITLE8=パラダイス A GO GO
TTITLE9=ヒルビー　～太陽とビーサンと私～
TTITLE10=狼少年
TTITLE11=我ら五人の侍なり　～We are five samurai～
TTITLE12=AMBIENT-57
TTITLE13=朝き夢見じ
TTITLE14=メラリズム
TTITLE15=鬼の樹　～巣立ち行く我が子へ～
EXTD=YEAR: 2007
EXTT0=
EXTT1=
EXTT2=
EXTT3=
EXTT4=
EXTT5=
EXTT6=
EXTT7=
EXTT8=
EXTT9=
EXTT10=
EXTT11=
EXTT12=
EXTT13=
EXTT14=
EXTT15=
PLAYORDER=
